<svg width="24" height="24" viewBox="0 0 24 24" fill="none" xmlns="http://www.w3.org/2000/svg">
<g clip-path="url(#clip0)">
<path d="M1.444 6.669C1.10916 6.76467 0.8051 6.94612 0.561912 7.19538C0.318724 7.44465 0.144836 7.75309 0.0574546 8.09019C-0.0299273 8.42729 -0.0277744 8.78137 0.0637002 9.11739C0.155175 9.4534 0.332801 9.75971 0.579002 10.006L3.991 13.414V20H10.584L14.019 23.43C14.2032 23.6161 14.4225 23.7639 14.6642 23.8648C14.9058 23.9658 15.1651 24.0178 15.427 24.018C15.5991 24.0177 15.7705 23.9955 15.937 23.952C16.274 23.8671 16.5826 23.695 16.8319 23.4529C17.0812 23.2108 17.2623 22.9073 17.357 22.573L23.991 0.0209961L1.444 6.669ZM2 8.592L19.028 3.572L5.993 16.586V12.586L2 8.592ZM15.44 22.016L11.413 18H7.413L20.446 4.978L15.44 22.016Z" fill="white"/>
</g>
<defs>
<clipPath id="clip0">
<rect width="24" height="24" fill="white"/>
</clipPath>
</defs>
</svg>
